<svg xmlns="http://www.w3.org/2000/svg" width="11.81" height="20" viewBox="0 0 11.81 20">
  <defs>
    <style>
      .cls-1 {
        fill: #28a8db;
        fill-rule: evenodd;
      }
    </style>
  </defs>
  <path id="chevron-right_копия_2" data-name="chevron-right копия 2" class="cls-1" d="M1321,686a1.378,1.378,0,0,1-.42.994l-9.04,8.618a1.4,1.4,0,0,1-.96.384,1.41,1.41,0,0,1-1.01-.423,1.375,1.375,0,0,1,.04-1.949l8-7.624-8-7.623a1.375,1.375,0,0,1-.04-1.949,1.4,1.4,0,0,1,1.97-.039l9.04,8.618A1.375,1.375,0,0,1,1321,686Z" transform="translate(-1309.19 -676)"/>
</svg>
